<?xml version="1.0" standalone="no"?>
<!DOCTYPE svg PUBLIC "-//W3C//DTD SVG 20010904//EN"
 "http://www.w3.org/TR/2001/REC-SVG-20010904/DTD/svg10.dtd">
<svg version="1.0" xmlns="http://www.w3.org/2000/svg"
 width="700.000000pt" height="700.000000pt" viewBox="0 0 700.000000 700.000000"
 preserveAspectRatio="xMidYMid meet">
<metadata>
Created by potrace 1.14, written by Peter Selinger 2001-2017
</metadata>
<g transform="translate(0.000000,700.000000) scale(0.100000,-0.100000)"
fill="#000000" stroke="none">
<path d="M0 3500 l0 -3500 3500 0 3500 0 0 3500 0 3500 -3500 0 -3500 0 0
-3500z m3695 2025 c352 -23 756 -185 1070 -430 91 -71 250 -229 326 -325 135
-169 275 -427 343 -632 132 -397 132 -879 0 -1276 -44 -134 -153 -359 -231
-477 -208 -315 -475 -548 -818 -715 -246 -120 -478 -182 -743 -199 -394 -24
-734 46 -1076 222 -308 158 -574 398 -769 692 -78 118 -187 343 -231 477 -132
398 -132 878 0 1276 70 210 208 463 351 642 70 88 233 250 318 316 328 256
720 408 1118 433 119 8 156 8 342 -4z"/>
<path d="M4150 5073 c0 -203 -96 -370 -257 -446 l-68 -32 -272 -3 -273 -3 0
-239 c0 -144 -4 -250 -11 -267 -5 -15 -25 -43 -42 -61 -62 -65 -67 -67 -342
-72 l-250 -5 -3 -222 -2 -223 677 0 c641 0 680 -1 719 -19 23 -10 54 -35 69
-54 51 -68 55 -101 55 -463 l0 -332 168 -4 c157 -3 170 -5 225 -30 80 -38 158
-115 199 -196 18 -37 34 -69 36 -72 7 -11 147 175 212 284 101 168 183 397
222 616 20 115 16 450 -6 575 -84 466 -359 892 -740 1147 -75 50 -293 168
-311 168 -3 0 -5 -21 -5 -47z"/>
<path d="M1802 3843 c-37 -188 -40 -463 -7 -648 110 -624 545 -1141 1125
-1338 104 -36 284 -77 334 -77 l26 0 0 203 0 204 -67 12 c-132 24 -246 111
-305 233 -40 81 -47 127 -48 283 l0 140 -524 524 -523 523 -11 -59z"/>
</g>
</svg>
